<?xml version="1.0" standalone="no"?>
<!DOCTYPE svg PUBLIC "-//W3C//DTD SVG 20010904//EN"
 "http://www.w3.org/TR/2001/REC-SVG-20010904/DTD/svg10.dtd">
<svg version="1.0" xmlns="http://www.w3.org/2000/svg"
 width="512.000000pt" height="512.000000pt" viewBox="0 0 512.000000 512.000000"
 preserveAspectRatio="xMidYMid meet">
<metadata>
Created by potrace 1.14, written by Peter Selinger 2001-2017
</metadata>
<g transform="translate(0.000000,512.000000) scale(0.100000,-0.100000)"
fill="#000000" stroke="none">
<path d="M3897 5035 c-1 -1 -51 -5 -112 -9 -109 -6 -167 -12 -215 -21 -14 -3
-43 -7 -65 -11 -68 -9 -256 -56 -325 -80 -347 -121 -631 -340 -829 -638 -101
-152 -199 -413 -226 -601 -3 -23 -7 -50 -9 -62 -24 -120 -23 -439 0 -603 25
-178 91 -479 123 -563 16 -40 14 -50 -14 -90 -117 -174 -268 -511 -320 -718
-24 -98 -27 -99 -45 -24 -45 177 -122 422 -185 580 -105 267 -118 299 -150
370 -8 17 -37 82 -65 145 -63 140 -197 405 -262 518 -26 46 -48 86 -48 89 0 3
-14 25 -30 50 -16 24 -30 46 -30 49 0 8 -146 237 -219 344 -128 188 -299 411
-356 463 -27 26 -70 43 -102 40 -7 0 -23 -1 -35 -2 -21 -1 -239 -212 -274
-266 -9 -13 -16 -45 -16 -70 0 -36 8 -55 38 -98 21 -28 41 -54 44 -57 16 -13
226 -316 265 -382 5 -10 37 -61 70 -115 123 -201 164 -275 308 -563 159 -316
330 -712 422 -975 9 -27 21 -59 26 -70 58 -133 220 -698 269 -937 35 -167 33
-160 50 -268 16 -105 18 -118 26 -175 8 -68 26 -107 64 -144 78 -74 196 -71
274 6 42 42 34 20 102 282 30 113 57 214 59 224 3 9 7 25 9 35 31 120 157 512
239 742 138 386 350 827 399 831 7 0 38 2 68 4 212 14 295 26 558 81 13 2 77
23 143 44 244 81 429 190 570 337 151 157 228 308 329 643 17 58 33 112 35
120 35 138 165 589 195 675 42 118 137 312 197 402 26 39 75 102 108 139 33
37 65 81 71 98 14 39 1 79 -32 100 -19 13 -130 40 -254 62 -14 2 -34 6 -45 9
-11 2 -43 7 -71 10 -28 3 -61 8 -75 10 -13 3 -53 8 -89 11 -36 3 -74 7 -86 9
-41 9 -468 26 -477 20z"/>
</g>
</svg>
