<?xml version="1.0" encoding="UTF-8" standalone="no"?>
<svg
   xmlns:dc="http://purl.org/dc/elements/1.1/"
   xmlns:cc="http://creativecommons.org/ns#"
   xmlns:rdf="http://www.w3.org/1999/02/22-rdf-syntax-ns#"
   xmlns:svg="http://www.w3.org/2000/svg"
   xmlns="http://www.w3.org/2000/svg"
   xmlns:sodipodi="http://sodipodi.sourceforge.net/DTD/sodipodi-0.dtd"
   xmlns:inkscape="http://www.inkscape.org/namespaces/inkscape"
   version="1.1"
   id="svg2"
   xml:space="preserve"
   width="384"
   height="384"
   viewBox="0 0 384 384"
   sodipodi:docname="25452.eps"><metadata
     id="metadata8"><rdf:RDF><cc:Work
         rdf:about=""><dc:format>image/svg+xml</dc:format><dc:type
           rdf:resource="http://purl.org/dc/dcmitype/StillImage" /></cc:Work></rdf:RDF></metadata><defs
     id="defs6"><clipPath
       clipPathUnits="userSpaceOnUse"
       id="clipPath22"><path
         d="m 1342.21,278.648 c -554.98,0 -1004.886,449.891 -1004.886,1004.872 0,554.98 449.906,1004.88 1004.886,1004.88 554.98,0 1004.87,-449.9 1004.87,-1004.88 0,-554.981 -449.89,-1004.872 -1004.87,-1004.872"
         id="path20" /></clipPath><radialGradient
       fx="0"
       fy="0"
       cx="0"
       cy="0"
       r="1"
       gradientUnits="userSpaceOnUse"
       gradientTransform="matrix(1004.88,0,0,-1004.88,1342.21,1283.52)"
       spreadMethod="pad"
       id="radialGradient30"><stop
         style="stop-opacity:1;stop-color:#a8a8a8"
         offset="0"
         id="stop24" /><stop
         style="stop-opacity:1;stop-color:#a8a8a8"
         offset="0.753731"
         id="stop26" /><stop
         style="stop-opacity:1;stop-color:#ffffff"
         offset="1"
         id="stop28" /></radialGradient><clipPath
       clipPathUnits="userSpaceOnUse"
       id="clipPath44"><path
         d="m 1933.07,1446.69 c 0,-282.75 -229.22,-511.979 -511.97,-511.979 -282.76,0 -511.975,229.229 -511.975,511.979 0,282.76 229.215,511.98 511.975,511.98 282.75,0 511.97,-229.22 511.97,-511.98 z"
         id="path42" /></clipPath><radialGradient
       fx="0"
       fy="0"
       cx="0"
       cy="0"
       r="1"
       gradientUnits="userSpaceOnUse"
       gradientTransform="matrix(511.976,0,0,-511.976,1421.1,1446.69)"
       spreadMethod="pad"
       id="radialGradient52"><stop
         style="stop-opacity:1;stop-color:#206833"
         offset="0"
         id="stop46" /><stop
         style="stop-opacity:1;stop-color:#206833"
         offset="0.385572"
         id="stop48" /><stop
         style="stop-opacity:1;stop-color:#183d22"
         offset="1"
         id="stop50" /></radialGradient><clipPath
       clipPathUnits="userSpaceOnUse"
       id="clipPath62"><path
         d="m 2800.63,2176.22 v -0.06 c -1.46,-2.43 -23.73,-40.18 -79.63,-104.22 -93.29,-106.95 -280.25,-287.28 -620.15,-499.23 -550.47,-343.24 -719.27,-461.6 -851.65,-606.429 0.31,0.848 3.95,10.258 11.53,26.707 40,86.912 189.57,370.982 538.82,634.772 418.63,316.17 649.4,273.08 1001.08,548.46 z"
         id="path60" /></clipPath><linearGradient
       x1="0"
       y1="0"
       x2="1"
       y2="0"
       gradientUnits="userSpaceOnUse"
       gradientTransform="matrix(2323.04,-1047.35,-1047.35,-2323.04,1010.16,2028.76)"
       spreadMethod="pad"
       id="linearGradient68"><stop
         style="stop-opacity:1;stop-color:#9cd75b"
         offset="0"
         id="stop64" /><stop
         style="stop-opacity:1;stop-color:#28883c"
         offset="1"
         id="stop66" /></linearGradient><clipPath
       clipPathUnits="userSpaceOnUse"
       id="clipPath78"><path
         d="m 2800.63,2176.16 c -2.85,-9.11 -157.63,-496.99 -640.78,-809.28 -435.44,-281.51 -695.53,-261.6 -856.8,-359.63 -19.37,-11.719 -37.21,-25.129 -53.85,-40.969 132.38,144.829 301.18,263.189 851.65,606.429 339.9,211.95 526.86,392.28 620.15,499.23 55.9,64.04 78.17,101.79 79.63,104.22 z"
         id="path76" /></clipPath><linearGradient
       x1="0"
       y1="0"
       x2="1"
       y2="0"
       gradientUnits="userSpaceOnUse"
       gradientTransform="matrix(-569.246,-1280.8,-1280.8,569.246,2387.16,2380.54)"
       spreadMethod="pad"
       id="linearGradient84"><stop
         style="stop-opacity:1;stop-color:#9cd75b"
         offset="0"
         id="stop80" /><stop
         style="stop-opacity:1;stop-color:#28883c"
         offset="1"
         id="stop82" /></linearGradient><clipPath
       clipPathUnits="userSpaceOnUse"
       id="clipPath94"><path
         d="m 2732.77,2089.36 c 0,-0.06 -0.91,-1.7 -2.48,-4.19 -1.77,-2.67 -4.38,-6.61 -8.27,-11.83 l -1.02,-1.4 c -7.66,-10.25 -19.61,-25 -36.12,-43.21 -17.3,-19.06 -39.57,-41.94 -66.4,-67.26 -26.83,-25.31 -58.03,-53.11 -92.81,-82.36 -69.5,-58.63 -152.89,-122.79 -242.73,-187.44 -44.91,-32.22 -91.4,-64.64 -138.69,-96.81 -47.4,-32.17 -95.05,-63.79 -142.94,-95.72 -95.66,-63.49 -191.32,-126.92 -280.98,-186.4 -89.52,-59.48 -173.04,-115.33 -243.51,-165.58 -35.21,-25.07 -67.01,-48.93 -94.44,-70.71 -27.38,-21.85 -50.2,-41.76 -68.11,-58.52 -3.95,-3.7 -7.71,-7.22 -11.22,-10.68 -19.37,-11.719 -37.21,-25.129 -53.85,-40.969 0.31,0.848 3.95,10.258 11.53,26.707 9.59,9.772 22.28,22.212 38,36.722 20.58,18.88 46.32,40.97 76.06,64.28 29.74,23.31 63.31,48.01 99.67,73.44 72.77,50.99 156.71,106.04 246.42,164.61 89.59,58.33 185.2,120.61 280.79,182.88 47.71,31.26 95.66,62.52 142.39,93.54 46.86,31.32 92.93,62.76 137.49,94.08 88.98,62.82 171.65,125.22 240.42,182.21 34.35,28.47 65.25,55.48 91.77,80.06 26.47,24.52 48.38,46.68 65.43,65.01 16.99,18.39 28.96,32.96 36.24,42.67 3.7,4.92 6.14,8.56 7.77,10.93 1.58,2.42 2.13,3.39 2.18,3.52 1.16,2 3.76,4.12 5.78,4.85 2.06,0.67 2.79,-0.43 1.63,-2.43 z"
         id="path92" /></clipPath><linearGradient
       x1="0"
       y1="0"
       x2="1"
       y2="0"
       gradientUnits="userSpaceOnUse"
       gradientTransform="matrix(-605.881,-1097.04,-1097.04,605.881,1937.7,1434.23)"
       spreadMethod="pad"
       id="linearGradient100"><stop
         style="stop-opacity:1;stop-color:#9cd75b"
         offset="0"
         id="stop96" /><stop
         style="stop-opacity:1;stop-color:#28883c"
         offset="1"
         id="stop98" /></linearGradient><clipPath
       clipPathUnits="userSpaceOnUse"
       id="clipPath110"><path
         d="m 1250.8,965.98 c 0,0 -6.35,0.711 -17.69,2.911 -57.02,11.281 -239.903,61.049 -370.09,252.409 -156.114,229.41 -80.684,396.79 -219.032,587.7 0,0 24.168,-7.9 62.528,-35.45 61.828,-44.19 160.586,-139.26 254.093,-333.93 151.381,-315.33 207.501,-409.55 290.191,-473.64 z"
         id="path108" /></clipPath><linearGradient
       x1="0"
       y1="0"
       x2="1"
       y2="0"
       gradientUnits="userSpaceOnUse"
       gradientTransform="matrix(2277.82,-1026.97,-1026.97,-2277.82,-50.9668,1828.11)"
       spreadMethod="pad"
       id="linearGradient116"><stop
         style="stop-opacity:1;stop-color:#9cd75b"
         offset="0"
         id="stop112" /><stop
         style="stop-opacity:1;stop-color:#28883c"
         offset="1"
         id="stop114" /></linearGradient><clipPath
       clipPathUnits="userSpaceOnUse"
       id="clipPath126"><path
         d="m 1250.8,965.98 c -82.69,64.09 -138.81,158.31 -290.191,473.64 -93.507,194.67 -192.265,289.74 -254.093,333.93 -38.36,27.55 -62.528,35.45 -62.528,35.45 0,0 338.203,-12.7 480.642,-289.86 127.21,-247.75 63.31,-431.01 105.95,-523.87 5.06,-11.079 11.6,-20.872 20.22,-29.29 z"
         id="path124" /></clipPath><linearGradient
       x1="0"
       y1="0"
       x2="1"
       y2="0"
       gradientUnits="userSpaceOnUse"
       gradientTransform="matrix(-184.885,-415.988,-415.988,184.885,1072.44,1668.85)"
       spreadMethod="pad"
       id="linearGradient132"><stop
         style="stop-opacity:1;stop-color:#9cd75b"
         offset="0"
         id="stop128" /><stop
         style="stop-opacity:1;stop-color:#28883c"
         offset="1"
         id="stop130" /></linearGradient><clipPath
       clipPathUnits="userSpaceOnUse"
       id="clipPath142"><path
         d="m 1250.8,965.98 c 0,0 -6.35,0.711 -17.69,2.911 -5.44,4.871 -12.32,11.211 -20.09,19.379 -10.18,10.628 -21.78,24.24 -33.51,40.38 -11.66,16.13 -23.71,34.66 -35.77,54.95 -24.17,40.63 -49.25,88.19 -75.88,139.06 -26.5,50.87 -54.76,105.12 -83.012,159.35 -14.192,27.09 -28.45,54.31 -42.707,80.68 -14.383,26.44 -29.09,52.37 -44.004,77.19 -29.871,49.57 -60.653,94.86 -90.067,131.61 -14.648,18.41 -28.906,34.61 -42.187,48.28 -13.293,13.67 -25.539,24.62 -35.969,32.92 -10.496,8.29 -19.051,13.8 -24.883,16.98 -2.988,1.62 -5.183,2.65 -6.679,3.3 -1.485,0.65 -2.071,0.84 -2.137,0.84 -1.301,0.46 -2.395,1.82 -2.531,3.11 -0.125,1.3 0.781,2.01 2.082,1.56 0.125,0 1.101,-0.32 2.586,-0.97 1.691,-0.72 4.152,-1.75 7.257,-3.44 l 0.907,-0.52 c 6.222,-3.24 14.914,-8.74 25.273,-16.72 10.891,-8.36 23.723,-19.37 37.461,-33.18 13.742,-13.73 28.516,-30.06 43.742,-48.53 30.457,-36.88 62.403,-82.43 93.504,-132.2 15.488,-24.95 30.793,-50.94 45.82,-77.5 14.973,-26.64 29.485,-53.6 44.2,-80.69 29.164,-54.04 58.254,-108.09 85.604,-158.76 27.35,-50.61 53.07,-97.73 77.11,-136.93 12.05,-19.57 23.72,-37.07 34.81,-51.85 11.01,-14.77 21.51,-26.76 30.58,-36.03 2.07,-2.07 4.08,-4.082 5.96,-5.89 5.06,-11.079 11.6,-20.872 20.22,-29.29 z"
         id="path140" /></clipPath><linearGradient
       x1="0"
       y1="0"
       x2="1"
       y2="0"
       gradientUnits="userSpaceOnUse"
       gradientTransform="matrix(-160.074,-289.836,-289.836,160.074,957.537,1345.19)"
       spreadMethod="pad"
       id="linearGradient148"><stop
         style="stop-opacity:1;stop-color:#9cd75b"
         offset="0"
         id="stop144" /><stop
         style="stop-opacity:1;stop-color:#28883c"
         offset="1"
         id="stop146" /></linearGradient></defs><sodipodi:namedview
     pagecolor="#ffffff"
     bordercolor="#666666"
     borderopacity="1"
     objecttolerance="10"
     gridtolerance="10"
     guidetolerance="10"
     inkscape:pageopacity="0"
     inkscape:pageshadow="2"
     inkscape:window-width="640"
     inkscape:window-height="480"
     id="namedview4" /><g
     id="g10"
     inkscape:groupmode="layer"
     inkscape:label="ink_ext_XXXXXX"
     transform="matrix(1.3333333,0,0,-1.3333333,0,384)"><g
       id="g12"
       transform="scale(0.1)"><g
         id="g16"><g
           id="g18"
           clip-path="url(#clipPath22)"></g></g><path
         d="m 2331.96,1446.69 c 0,-503.049 -407.81,-910.862 -910.86,-910.862 -503.061,0 -910.862,407.813 -910.862,910.862 0,503.06 407.801,910.86 910.862,910.86 503.05,0 910.86,-407.8 910.86,-910.86"
         style="fill:#163034;fill-opacity:1;fill-rule:nonzero;stroke:none"
         id="path34" /><path
         d="m 1989.62,1446.69 c 0,-313.98 -254.54,-568.518 -568.52,-568.518 -313.99,0 -568.53,254.538 -568.53,568.518 0,313.99 254.54,568.53 568.53,568.53 313.98,0 568.52,-254.54 568.52,-568.53"
         style="fill:#f0f0ef;fill-opacity:1;fill-rule:nonzero;stroke:none"
         id="path36" /><g
         id="g38"><g
           id="g40"
           clip-path="url(#clipPath44)"><path
             d="m 1933.07,1446.69 c 0,-282.75 -229.22,-511.979 -511.97,-511.979 -282.76,0 -511.975,229.229 -511.975,511.979 0,282.76 229.215,511.98 511.975,511.98 282.75,0 511.97,-229.22 511.97,-511.98"
             style="fill:url(#radialGradient52);fill-opacity:1;fill-rule:nonzero;stroke:none"
             id="path54" /></g></g><g
         id="g56"><g
           id="g58"
           clip-path="url(#clipPath62)"><path
             d="m 2800.63,2176.22 v -0.06 c -1.46,-2.43 -23.73,-40.18 -79.63,-104.22 -93.29,-106.95 -280.25,-287.28 -620.15,-499.23 -550.47,-343.24 -719.27,-461.6 -851.65,-606.429 0.31,0.848 3.95,10.258 11.53,26.707 40,86.912 189.57,370.982 538.82,634.772 418.63,316.17 649.4,273.08 1001.08,548.46"
             style="fill:url(#linearGradient68);fill-opacity:1;fill-rule:nonzero;stroke:none"
             id="path70" /></g></g><g
         id="g72"><g
           id="g74"
           clip-path="url(#clipPath78)"><path
             d="m 2800.63,2176.16 c -2.85,-9.11 -157.63,-496.99 -640.78,-809.28 -435.44,-281.51 -695.53,-261.6 -856.8,-359.63 -19.37,-11.719 -37.21,-25.129 -53.85,-40.969 132.38,144.829 301.18,263.189 851.65,606.429 339.9,211.95 526.86,392.28 620.15,499.23 55.9,64.04 78.17,101.79 79.63,104.22"
             style="fill:url(#linearGradient84);fill-opacity:1;fill-rule:nonzero;stroke:none"
             id="path86" /></g></g><g
         id="g88"><g
           id="g90"
           clip-path="url(#clipPath94)"><path
             d="m 2732.77,2089.36 c 0,-0.06 -0.91,-1.7 -2.48,-4.19 -1.77,-2.67 -4.38,-6.61 -8.27,-11.83 l -1.02,-1.4 c -7.66,-10.25 -19.61,-25 -36.12,-43.21 -17.3,-19.06 -39.57,-41.94 -66.4,-67.26 -26.83,-25.31 -58.03,-53.11 -92.81,-82.36 -69.5,-58.63 -152.89,-122.79 -242.73,-187.44 -44.91,-32.22 -91.4,-64.64 -138.69,-96.81 -47.4,-32.17 -95.05,-63.79 -142.94,-95.72 -95.66,-63.49 -191.32,-126.92 -280.98,-186.4 -89.52,-59.48 -173.04,-115.33 -243.51,-165.58 -35.21,-25.07 -67.01,-48.93 -94.44,-70.71 -27.38,-21.85 -50.2,-41.76 -68.11,-58.52 -3.95,-3.7 -7.71,-7.22 -11.22,-10.68 -19.37,-11.719 -37.21,-25.129 -53.85,-40.969 0.31,0.848 3.95,10.258 11.53,26.707 9.59,9.772 22.28,22.212 38,36.722 20.58,18.88 46.32,40.97 76.06,64.28 29.74,23.31 63.31,48.01 99.67,73.44 72.77,50.99 156.71,106.04 246.42,164.61 89.59,58.33 185.2,120.61 280.79,182.88 47.71,31.26 95.66,62.52 142.39,93.54 46.86,31.32 92.93,62.76 137.49,94.08 88.98,62.82 171.65,125.22 240.42,182.21 34.35,28.47 65.25,55.48 91.77,80.06 26.47,24.52 48.38,46.68 65.43,65.01 16.99,18.39 28.96,32.96 36.24,42.67 3.7,4.92 6.14,8.56 7.77,10.93 1.58,2.42 2.13,3.39 2.18,3.52 1.16,2 3.76,4.12 5.78,4.85 2.06,0.67 2.79,-0.43 1.63,-2.43"
             style="fill:url(#linearGradient100);fill-opacity:1;fill-rule:nonzero;stroke:none"
             id="path102" /></g></g><g
         id="g104"><g
           id="g106"
           clip-path="url(#clipPath110)"><path
             d="m 1250.8,965.98 c 0,0 -6.35,0.711 -17.69,2.911 -57.02,11.281 -239.903,61.049 -370.09,252.409 -156.114,229.41 -80.684,396.79 -219.032,587.7 0,0 24.168,-7.9 62.528,-35.45 61.828,-44.19 160.586,-139.26 254.093,-333.93 151.381,-315.33 207.501,-409.55 290.191,-473.64"
             style="fill:url(#linearGradient116);fill-opacity:1;fill-rule:nonzero;stroke:none"
             id="path118" /></g></g><g
         id="g120"><g
           id="g122"
           clip-path="url(#clipPath126)"><path
             d="m 1250.8,965.98 c -82.69,64.09 -138.81,158.31 -290.191,473.64 -93.507,194.67 -192.265,289.74 -254.093,333.93 -38.36,27.55 -62.528,35.45 -62.528,35.45 0,0 338.203,-12.7 480.642,-289.86 127.21,-247.75 63.31,-431.01 105.95,-523.87 5.06,-11.079 11.6,-20.872 20.22,-29.29"
             style="fill:url(#linearGradient132);fill-opacity:1;fill-rule:nonzero;stroke:none"
             id="path134" /></g></g><g
         id="g136"><g
           id="g138"
           clip-path="url(#clipPath142)"><path
             d="m 1250.8,965.98 c 0,0 -6.35,0.711 -17.69,2.911 -5.44,4.871 -12.32,11.211 -20.09,19.379 -10.18,10.628 -21.78,24.24 -33.51,40.38 -11.66,16.13 -23.71,34.66 -35.77,54.95 -24.17,40.63 -49.25,88.19 -75.88,139.06 -26.5,50.87 -54.76,105.12 -83.012,159.35 -14.192,27.09 -28.45,54.31 -42.707,80.68 -14.383,26.44 -29.09,52.37 -44.004,77.19 -29.871,49.57 -60.653,94.86 -90.067,131.61 -14.648,18.41 -28.906,34.61 -42.187,48.28 -13.293,13.67 -25.539,24.62 -35.969,32.92 -10.496,8.29 -19.051,13.8 -24.883,16.98 -2.988,1.62 -5.183,2.65 -6.679,3.3 -1.485,0.65 -2.071,0.84 -2.137,0.84 -1.301,0.46 -2.395,1.82 -2.531,3.11 -0.125,1.3 0.781,2.01 2.082,1.56 0.125,0 1.101,-0.32 2.586,-0.97 1.691,-0.72 4.152,-1.75 7.257,-3.44 l 0.907,-0.52 c 6.222,-3.24 14.914,-8.74 25.273,-16.72 10.891,-8.36 23.723,-19.37 37.461,-33.18 13.742,-13.73 28.516,-30.06 43.742,-48.53 30.457,-36.88 62.403,-82.43 93.504,-132.2 15.488,-24.95 30.793,-50.94 45.82,-77.5 14.973,-26.64 29.485,-53.6 44.2,-80.69 29.164,-54.04 58.254,-108.09 85.604,-158.76 27.35,-50.61 53.07,-97.73 77.11,-136.93 12.05,-19.57 23.72,-37.07 34.81,-51.85 11.01,-14.77 21.51,-26.76 30.58,-36.03 2.07,-2.07 4.08,-4.082 5.96,-5.89 5.06,-11.079 11.6,-20.872 20.22,-29.29"
             style="fill:url(#linearGradient148);fill-opacity:1;fill-rule:nonzero;stroke:none"
             id="path150" /></g></g><path
         d="m 1156.45,2043.12 -86.39,131.21 27.28,11.54 49.06,-80.92 -22.58,92.12 26.88,11.38 32.07,-154.19 -26.32,-11.14"
         style="fill:#f0f0ef;fill-opacity:1;fill-rule:nonzero;stroke:none"
         id="path152" /><path
         d="m 1260.32,2080.18 -32,151.15 63.07,13.35 4.44,-20.99 -32.5,-6.88 8.71,-41.15 23.01,4.87 4.55,-21.49 -23.01,-4.87 9.86,-46.52 32.49,6.87 4.45,-20.99 -63.07,-13.35"
         style="fill:#f0f0ef;fill-opacity:1;fill-rule:nonzero;stroke:none"
         id="path154" /><path
         d="m 1372.73,2148.18 -0.33,54.41 c -0.22,36.52 14.86,54.86 45.25,55.04 6.4,0.04 12.12,-0.77 17.14,-2.43 5.01,-1.65 9.22,-3.96 12.61,-6.91 3.39,-2.96 6.19,-6.6 8.39,-10.94 2.2,-4.33 3.8,-9.05 4.81,-14.13 1,-5.09 1.52,-10.69 1.56,-16.82 l 0.06,-9.1 -29.87,-0.18 -0.07,10.82 c -0.02,2.69 -0.1,5.04 -0.26,7.08 -0.15,2.02 -0.53,4.28 -1.12,6.77 -0.58,2.49 -1.37,4.53 -2.34,6.12 -0.99,1.6 -2.4,2.94 -4.24,4.02 -1.84,1.07 -4.01,1.6 -6.53,1.58 -9.56,-0.05 -14.29,-7.7 -14.19,-22.92 l 0.4,-66.69 c 0.09,-15.16 4.91,-22.71 14.47,-22.65 9.49,0.05 14.2,7.95 14.11,23.69 l -0.08,12.36 -17.68,-0.12 -0.13,22.41 48.92,0.3 0.48,-79.48 -21.46,-0.13 -4.01,10.79 c -2.61,-4.14 -6.33,-7.49 -11.19,-10.07 -4.85,-2.57 -9.84,-3.87 -14.99,-3.91 -5.55,-0.03 -10.61,0.95 -15.16,2.96 -4.57,2 -8.34,4.66 -11.3,8 -2.97,3.33 -5.47,7.25 -7.5,11.75 -2.03,4.51 -3.49,9.12 -4.38,13.84 -0.88,4.71 -1.34,9.56 -1.37,14.54"
         style="fill:#f0f0ef;fill-opacity:1;fill-rule:nonzero;stroke:none"
         id="path156" /><path
         d="m 1562.1,2138.7 15.61,-3.32 4.28,57.7 z m -49.16,-43 64.79,144.18 27.03,-5.74 0.45,-158.05 -30.14,6.41 0.66,33.64 -19.73,4.2 -12.75,-31.08 -30.31,6.44"
         style="fill:#f0f0ef;fill-opacity:1;fill-rule:nonzero;stroke:none"
         id="path158" /><path
         d="m 1652.75,2059.84 63.6,140.89 20.5,-9.25 -2.37,-87.64 33.27,73.69 23.63,-10.67 -63.6,-140.89 -19.72,8.9 4.45,92.07 -35.27,-78.16 -24.49,11.06"
         style="fill:#f0f0ef;fill-opacity:1;fill-rule:nonzero;stroke:none"
         id="path160" /><path
         d="m 935.141,807.641 88.829,126.41 52.73,-37.063 -12.33,-17.547 -27.18,19.09 -24.18,-34.41 19.24,-13.519 -12.63,-17.981 -19.25,13.52 -39.675,-56.461 -25.554,17.961"
         style="fill:#f0f0ef;fill-opacity:1;fill-rule:nonzero;stroke:none"
         id="path162" /><path
         d="m 1116.62,803.48 8.13,-3.699 c 2.19,-0.992 4.39,-1.121 6.62,-0.371 2.23,0.738 4.2,2.078 5.92,4 1.73,1.91 3.15,3.75 4.29,5.488 1.15,1.75 2.09,3.454 2.86,5.122 0.75,1.66 1.41,3.429 1.99,5.312 0.57,1.879 1.04,4.039 1.43,6.469 0.38,2.429 0.21,4.66 -0.54,6.66 -0.76,2.008 -2.12,3.469 -4.1,4.367 l -9.46,4.301 z m -65.82,-69.148 64.03,140.598 30.93,-14.078 c 7.04,-3.204 12.91,-6.68 17.65,-10.442 4.73,-3.762 8.46,-7.969 11.17,-12.629 2.72,-4.672 4.03,-9.883 3.92,-15.652 -0.12,-5.77 -1.7,-12.008 -4.76,-18.719 -1.33,-2.922 -2.61,-5.48 -3.86,-7.68 -1.26,-2.191 -2.93,-4.582 -5.02,-7.191 -2.1,-2.598 -4.32,-4.73 -6.65,-6.398 -2.34,-1.672 -5.22,-3.051 -8.67,-4.121 -3.44,-1.071 -7.16,-1.579 -11.16,-1.52 -3.75,-30.609 -6.72,-56.602 -8.91,-77.988 l -29.45,13.41 13.39,72.078 -4.69,2.141 -29.48,-64.762 -28.44,12.953"
         style="fill:#f0f0ef;fill-opacity:1;fill-rule:nonzero;stroke:none"
         id="path164" /><path
         d="m 1198.24,676.852 39.37,149.398 30.21,-7.961 -39.37,-149.398 -30.21,7.961"
         style="fill:#f0f0ef;fill-opacity:1;fill-rule:nonzero;stroke:none"
         id="path166" /><path
         d="m 1306.23,653.691 15.92,153.68 64.11,-6.641 -2.2,-21.339 -33.04,3.418 -4.34,-41.84 23.39,-2.418 -2.26,-21.852 -23.39,2.422 -4.9,-47.301 33.04,-3.422 -2.21,-21.339 -64.12,6.632"
         style="fill:#f0f0ef;fill-opacity:1;fill-rule:nonzero;stroke:none"
         id="path168" /><path
         d="m 1444.71,645.82 -12.82,154.059 22.41,1.859 40.49,-77.758 -6.71,80.571 25.84,2.148 12.82,-154.051 -21.55,-1.789 -40.82,82.641 7.12,-85.449 -26.78,-2.231"
         style="fill:#f0f0ef;fill-opacity:1;fill-rule:nonzero;stroke:none"
         id="path170" /><path
         d="m 1634.01,698.48 c 2.85,0.852 5.08,1.571 6.71,2.141 1.62,0.57 3.2,1.27 4.74,2.09 1.55,0.82 2.62,1.629 3.21,2.437 0.6,0.801 1.07,1.852 1.4,3.141 0.32,1.301 0.36,2.731 0.11,4.293 -0.27,1.566 -0.72,3.469 -1.4,5.719 L 1624.97,798 c -1.45,4.871 -3.87,7.672 -7.25,8.391 -3.39,0.73 -8.51,0.089 -15.38,-1.903 z m -24.83,-30.261 -44.22,148.043 30.92,9.238 c 9.87,2.941 18.26,4.48 25.19,4.602 6.92,0.128 12.81,-1.301 17.67,-4.301 4.88,-2.992 8.86,-7.141 11.96,-12.422 3.1,-5.277 5.97,-12.34 8.61,-21.168 l 14.49,-48.52 c 1.57,-5.261 2.78,-9.902 3.62,-13.921 0.84,-4.02 1.37,-8.04 1.6,-12.071 0.21,-4.019 -0.07,-7.57 -0.85,-10.64 -0.79,-3.071 -2.08,-6.098 -3.88,-9.079 -1.8,-2.992 -4.24,-5.66 -7.32,-8.019 -3.09,-2.359 -6.87,-4.59 -11.35,-6.699 -4.47,-2.114 -9.76,-4.082 -15.84,-5.903 l -30.6,-9.14"
         style="fill:#f0f0ef;fill-opacity:1;fill-rule:nonzero;stroke:none"
         id="path172" /><path
         d="m 1763.17,723.672 -71.12,137.156 27.75,14.383 61.23,-118.109 27.28,14.136 9.88,-19.047 -55.02,-28.519"
         style="fill:#f0f0ef;fill-opacity:1;fill-rule:nonzero;stroke:none"
         id="path174" /><path
         d="m 1890.44,799.898 -30.86,40.68 -85.61,64.883 23.45,17.789 52.51,-45.379 c -3.07,7 -7.79,17.629 -14.15,31.867 -6.35,14.25 -11.09,24.864 -14.22,31.821 l 22.78,17.281 39.31,-100 30.86,-40.692 -24.07,-18.25"
         style="fill:#f0f0ef;fill-opacity:1;fill-rule:nonzero;stroke:none"
         id="path176" /><path
         d="m 961.887,2006.06 c 0,-16.7 -13.535,-30.23 -30.235,-30.23 -16.699,0 -30.234,13.53 -30.234,30.23 0,16.7 13.535,30.24 30.234,30.24 16.7,0 30.235,-13.54 30.235,-30.24"
         style="fill:#f0f0ef;fill-opacity:1;fill-rule:nonzero;stroke:none"
         id="path178" /><path
         d="m 1952.12,2006.06 c 0,-16.7 -13.53,-30.23 -30.23,-30.23 -16.7,0 -30.24,13.53 -30.24,30.23 0,16.7 13.54,30.24 30.24,30.24 16.7,0 30.23,-13.54 30.23,-30.24"
         style="fill:#f0f0ef;fill-opacity:1;fill-rule:nonzero;stroke:none"
         id="path180" /><path
         d="m 890.082,928.898 c 0,-16.699 -13.535,-30.238 -30.234,-30.238 -16.7,0 -30.246,13.539 -30.246,30.238 0,16.704 13.546,30.231 30.246,30.231 16.699,0 30.234,-13.527 30.234,-30.231"
         style="fill:#f0f0ef;fill-opacity:1;fill-rule:nonzero;stroke:none"
         id="path182" /><path
         d="m 2012.6,928.898 c 0,-16.699 -13.54,-30.238 -30.23,-30.238 -16.7,0 -30.25,13.539 -30.25,30.238 0,16.704 13.55,30.231 30.25,30.231 16.69,0 30.23,-13.527 30.23,-30.231"
         style="fill:#f0f0ef;fill-opacity:1;fill-rule:nonzero;stroke:none"
         id="path184" /></g></g></svg>
